<svg width="25" height="24" viewBox="0 0 25 24" fill="none" xmlns="http://www.w3.org/2000/svg">
<path d="M12 8.00003C14.5 8.00003 16.5 10 16.5 12.5C16.5 15 14.5 17 12 17C9.5 17 7.5 15 7.5 12.5C7.5 10 9.5 8.00003 12 8.00003ZM12 9.00003C11.0717 9.00003 10.1815 9.36878 9.52513 10.0252C8.86875 10.6815 8.5 11.5718 8.5 12.5C8.5 13.4283 8.86875 14.3185 9.52513 14.9749C10.1815 15.6313 11.0717 16 12 16C12.9283 16 13.8185 15.6313 14.4749 14.9749C15.1313 14.3185 15.5 13.4283 15.5 12.5C15.5 11.5718 15.1313 10.6815 14.4749 10.0252C13.8185 9.36878 12.9283 9.00003 12 9.00003ZM5.5 5.00003H7.5L9.5 3.00003H14.5L16.5 5.00003H18.5C19.2956 5.00003 20.0587 5.3161 20.6213 5.87871C21.1839 6.44132 21.5 7.20438 21.5 8.00003V17C21.5 17.7957 21.1839 18.5587 20.6213 19.1214C20.0587 19.684 19.2956 20 18.5 20H5.5C4.70435 20 3.94129 19.684 3.37868 19.1214C2.81607 18.5587 2.5 17.7957 2.5 17V8.00003C2.5 7.20438 2.81607 6.44132 3.37868 5.87871C3.94129 5.3161 4.70435 5.00003 5.5 5.00003ZM9.91 4.00003L7.91 6.00003H5.5C4.96957 6.00003 4.46086 6.21074 4.08579 6.58582C3.71071 6.96089 3.5 7.4696 3.5 8.00003V17C3.5 17.5305 3.71071 18.0392 4.08579 18.4142C4.46086 18.7893 4.96957 19 5.5 19H18.5C19.0304 19 19.5391 18.7893 19.9142 18.4142C20.2893 18.0392 20.5 17.5305 20.5 17V8.00003C20.5 7.4696 20.2893 6.96089 19.9142 6.58582C19.5391 6.21074 19.0304 6.00003 18.5 6.00003H16.09L14.09 4.00003H9.91Z" fill="#121212"/>
</svg>
