<svg width="24" height="24" viewBox="0 0 24 24" fill="none" xmlns="http://www.w3.org/2000/svg">
<path d="M18.8155 17.9811C18.8725 18.035 18.9181 18.0999 18.9498 18.1721C18.9815 18.2443 18.9985 18.3222 18.9999 18.4012C19.0013 18.4802 18.987 18.5587 18.9578 18.632C18.9287 18.7052 18.8853 18.7718 18.8302 18.8277C18.7752 18.8835 18.7096 18.9276 18.6374 18.9572C18.5653 18.9868 18.488 19.0013 18.4101 18.9999C18.3323 18.9985 18.2556 18.9812 18.1845 18.9491C18.1134 18.9169 18.0494 18.8705 17.9963 18.8127L12.1211 12.8223L5.97478 18.8421C5.8649 18.946 5.71957 19.0026 5.56941 18.9999C5.41924 18.9972 5.27597 18.9355 5.16977 18.8277C5.06357 18.7199 5.00274 18.5744 5.00009 18.422C4.99744 18.2695 5.05318 18.122 5.15557 18.0105L11.3009 11.9897L5.15557 5.98954C5.05318 5.878 4.99744 5.73047 5.00009 5.57803C5.00274 5.42559 5.06357 5.28015 5.16977 5.17234C5.27597 5.06453 5.41924 5.00278 5.56941 5.00009C5.71957 4.9974 5.8649 5.05399 5.97478 5.15792L12.1211 11.1571L17.9963 5.15792C18.1062 5.05399 18.2515 4.9974 18.4017 5.00009C18.5518 5.00278 18.6951 5.06454 18.8013 5.17234C18.9075 5.28015 18.9683 5.42559 18.971 5.57803C18.9736 5.73047 18.9179 5.878 18.8155 5.98954L12.9413 11.9897L18.8155 17.9811Z" fill="#121212"/>
</svg>
