<svg width="24" height="24" viewBox="0 0 24 24" fill="none" xmlns="http://www.w3.org/2000/svg">
<path d="M19.71 8.04L18.0771 9.66592C17.6863 10.055 17.0543 10.0543 16.6644 9.6644L14.3286 7.32862C13.9375 6.9375 13.9382 6.30317 14.3301 5.91289L15.96 4.29C16.35 3.9 17 3.9 17.37 4.29L19.71 6.63C20.1 7 20.1 7.65 19.71 8.04ZM3 17.6639C3 17.3989 3.10522 17.1447 3.29254 16.9572L12.3529 7.88781C12.7434 7.49695 13.3768 7.49679 13.7675 7.88746L16.1032 10.2232C16.4936 10.6136 16.4938 11.2465 16.1036 11.6371L7.04295 20.7068C6.85539 20.8945 6.60088 21 6.3355 21H4C3.44772 21 3 20.5523 3 20V17.6639ZM16.62 5.04L15.08 6.58L17.42 8.92L18.96 7.38L16.62 5.04ZM15.36 11L13 8.64L4 17.66V20H6.34L15.36 11Z" fill="black"/>
</svg>
