<svg width="25" height="24" viewBox="0 0 25 24" fill="none" xmlns="http://www.w3.org/2000/svg">
<path d="M18.5 19.0001C18.5 19.7957 18.1839 20.5588 17.6213 21.1214C17.0587 21.684 16.2956 22.0001 15.5 22.0001H8.5C7.70435 22.0001 6.94129 21.684 6.37868 21.1214C5.81607 20.5588 5.5 19.7957 5.5 19.0001V7.00006C4.94772 7.00006 4.5 6.55235 4.5 6.00006V5.00006C4.5 4.44778 4.94772 4.00006 5.5 4.00006H9L9.70711 3.29295C9.89464 3.10542 10.149 3.00006 10.4142 3.00006H13.5858C13.851 3.00006 14.1054 3.10542 14.2929 3.29295L15 4.00006H18.5C19.0523 4.00006 19.5 4.44778 19.5 5.00006V6.00006C19.5 6.55235 19.0523 7.00006 18.5 7.00006V19.0001ZM6.5 7.00006V19.0001C6.5 19.5305 6.71071 20.0392 7.08579 20.4143C7.46086 20.7893 7.96957 21.0001 8.5 21.0001H15.5C16.0304 21.0001 16.5391 20.7893 16.9142 20.4143C17.2893 20.0392 17.5 19.5305 17.5 19.0001V7.00006H6.5ZM18.5 6.00006V5.00006H14.5L13.5 4.00006H10.5L9.5 5.00006H5.5V6.00006H18.5ZM8.5 9.00006H9.5V19.0001H8.5V9.00006ZM14.5 9.00006H15.5V19.0001H14.5V9.00006Z" fill="#E90505"/>
</svg>
