<svg width="14" height="14" viewBox="0 0 14 14" fill="none" xmlns="http://www.w3.org/2000/svg">
<path d="M1.75002 12.0108L3.84419 9.91667H10.5C10.8094 9.91667 11.1062 9.79375 11.325 9.57496C11.5438 9.35616 11.6667 9.05942 11.6667 8.75V3.5C11.6667 3.19058 11.5438 2.89383 11.325 2.67504C11.1062 2.45625 10.8094 2.33333 10.5 2.33333H2.91669C2.60727 2.33333 2.31052 2.45625 2.09173 2.67504C1.87294 2.89383 1.75002 3.19058 1.75002 3.5V12.0108ZM1.75002 12.8333H1.16669V3.5C1.16669 3.03587 1.35106 2.59075 1.67925 2.26256C2.00744 1.93437 2.45256 1.75 2.91669 1.75H10.5C10.9641 1.75 11.4093 1.93437 11.7375 2.26256C12.0656 2.59075 12.25 3.03587 12.25 3.5V8.75C12.25 9.21413 12.0656 9.65925 11.7375 9.98744C11.4093 10.3156 10.9641 10.5 10.5 10.5H4.08335L1.75002 12.8333Z" fill="#82D2F4"/>
</svg>
