<svg width="18" height="18" viewBox="0 0 18 18" fill="none" xmlns="http://www.w3.org/2000/svg">
<path d="M6.25 16.5C5.69772 16.5 5.23442 16.0403 5.41514 15.5184C5.56232 15.0934 5.80459 14.7028 6.12868 14.3787C6.69129 13.8161 7.45435 13.5 8.25 13.5V12.75C7.38551 12.7502 6.54751 12.4517 5.87782 11.905C5.20814 11.3583 4.7479 10.597 4.575 9.75H3.75C3.15326 9.75 2.58097 9.51295 2.15901 9.09099C1.73705 8.66903 1.5 8.09674 1.5 7.5V4.75C1.5 4.19772 1.94772 3.75 2.5 3.75H3C3.5775 3.75 4.1025 3.9675 4.5 4.32V3.25C4.5 2.69772 4.94772 2.25 5.5 2.25H11.75C12.3023 2.25 12.75 2.69772 12.75 3.25V4.32C13.1475 3.9675 13.6725 3.75 14.25 3.75H14.75C15.3023 3.75 15.75 4.19772 15.75 4.75V7.5C15.75 8.09674 15.5129 8.66903 15.091 9.09099C14.669 9.51295 14.0967 9.75 13.5 9.75H12.675C12.5021 10.597 12.0419 11.3583 11.3722 11.905C10.7025 12.4517 9.86449 12.7502 9 12.75V13.5C9.79565 13.5 10.5587 13.8161 11.1213 14.3787C11.4454 14.7028 11.6877 15.0934 11.8349 15.5184C12.0156 16.0403 11.5523 16.5 11 16.5H6.25ZM9 14.25H8.25C7.2675 14.25 6.435 14.8725 6.1275 15.75H11.1225C10.9683 15.3105 10.6811 14.93 10.3007 14.6612C9.92036 14.3924 9.46575 14.2487 9 14.25ZM12 3H5.25V9C5.25 9.79565 5.56607 10.5587 6.12868 11.1213C6.69129 11.6839 7.45435 12 8.25 12H9C9.79565 12 10.5587 11.6839 11.1213 11.1213C11.6839 10.5587 12 9.79565 12 9V3ZM15 7.5V4.5H14.25C13.8522 4.5 13.4706 4.65804 13.1893 4.93934C12.908 5.22064 12.75 5.60218 12.75 6V9H13.5C13.8978 9 14.2794 8.84196 14.5607 8.56066C14.842 8.27936 15 7.89782 15 7.5ZM2.25 7.5C2.25 7.89782 2.40804 8.27936 2.68934 8.56066C2.97064 8.84196 3.35218 9 3.75 9H4.5V6C4.5 5.60218 4.34196 5.22064 4.06066 4.93934C3.77936 4.65804 3.39782 4.5 3 4.5H2.25V7.5Z" fill="#05A4E9"/>
</svg>
