<svg width="25" height="24" viewBox="0 0 25 24" fill="none" xmlns="http://www.w3.org/2000/svg">
<path d="M5.5 3H18.5C19.2956 3 20.0587 3.31607 20.6213 3.87868C21.1839 4.44129 21.5 5.20435 21.5 6V19C21.5 19.7956 21.1839 20.5587 20.6213 21.1213C20.0587 21.6839 19.2956 22 18.5 22H5.5C4.70435 22 3.94129 21.6839 3.37868 21.1213C2.81607 20.5587 2.5 19.7956 2.5 19V6C2.5 5.20435 2.81607 4.44129 3.37868 3.87868C3.94129 3.31607 4.70435 3 5.5 3ZM5.5 4C4.96957 4 4.46086 4.21071 4.08579 4.58579C3.71071 4.96086 3.5 5.46957 3.5 6V17.59L7.08289 13.9988C7.47328 13.6075 8.10708 13.6071 8.49793 13.9979L10.29 15.79L14.5829 11.4971C14.9734 11.1066 15.6066 11.1066 15.9971 11.4971L20.5 16V6C20.5 5.46957 20.2893 4.96086 19.9142 4.58579C19.5391 4.21071 19.0304 4 18.5 4H5.5ZM10.29 17.21L7.79 14.71L3.5 19C3.5 19.5304 3.71071 20.0391 4.08579 20.4142C4.46086 20.7893 4.96957 21 5.5 21H18.5C19.0304 21 19.5391 20.7893 19.9142 20.4142C20.2893 20.0391 20.5 19.5304 20.5 19V17.41L15.29 12.21L10.29 17.21ZM8 6C8.66304 6 9.29893 6.26339 9.76777 6.73223C10.2366 7.20107 10.5 7.83696 10.5 8.5C10.5 9.16304 10.2366 9.79893 9.76777 10.2678C9.29893 10.7366 8.66304 11 8 11C7.33696 11 6.70107 10.7366 6.23223 10.2678C5.76339 9.79893 5.5 9.16304 5.5 8.5C5.5 7.83696 5.76339 7.20107 6.23223 6.73223C6.70107 6.26339 7.33696 6 8 6ZM8 7C7.60218 7 7.22064 7.15804 6.93934 7.43934C6.65804 7.72064 6.5 8.10218 6.5 8.5C6.5 8.89782 6.65804 9.27936 6.93934 9.56066C7.22064 9.84196 7.60218 10 8 10C8.39782 10 8.77936 9.84196 9.06066 9.56066C9.34196 9.27936 9.5 8.89782 9.5 8.5C9.5 8.10218 9.34196 7.72064 9.06066 7.43934C8.77936 7.15804 8.39782 7 8 7Z" fill="#121212"/>
</svg>
