<svg width="14" height="14" viewBox="0 0 14 14" fill="none" xmlns="http://www.w3.org/2000/svg">
<path d="M1.16665 5.83333H2.91665C3.07136 5.83333 3.21973 5.89479 3.32913 6.00418C3.43852 6.11358 3.49998 6.26195 3.49998 6.41666V11.6667C3.49998 11.8214 3.43852 11.9697 3.32913 12.0791C3.21973 12.1885 3.07136 12.25 2.91665 12.25H1.16665C1.01194 12.25 0.863564 12.1885 0.754167 12.0791C0.644771 11.9697 0.583313 11.8214 0.583313 11.6667V6.41666C0.583313 6.26195 0.644771 6.11358 0.754167 6.00418C0.863564 5.89479 1.01194 5.83333 1.16665 5.83333ZM1.16665 6.41666V11.6667H2.91665V6.41666H1.16665ZM10.3366 11.1008L12.0866 8.18416C12.1916 8.00916 12.25 7.79916 12.25 7.58333V6.99999C12.25 6.69058 12.1271 6.39383 11.9083 6.17504C11.6895 5.95624 11.3927 5.83333 11.0833 5.83333H7.81081L8.66248 2.65999V2.64833C8.6901 2.54999 8.69058 2.446 8.66388 2.34741C8.63718 2.24882 8.58429 2.15929 8.51081 2.08833L5.01081 5.59416C4.79498 5.80416 4.66665 6.09583 4.66665 6.41666V10.5C4.66665 10.8094 4.78956 11.1062 5.00836 11.325C5.22715 11.5437 5.52389 11.6667 5.83331 11.6667H9.33331C9.75915 11.6667 10.1325 11.4392 10.3366 11.1008ZM12.8333 7.58333C12.8333 7.92749 12.7341 8.25416 12.5591 8.52249L10.8616 11.3458C10.5641 11.8883 9.99248 12.25 9.33331 12.25H5.83331C5.36918 12.25 4.92406 12.0656 4.59588 11.7374C4.26769 11.4092 4.08331 10.9641 4.08331 10.5V6.41666C4.08331 5.93249 4.28165 5.49499 4.59665 5.17999L8.09695 1.67447C8.32547 1.44561 8.69629 1.44547 8.92498 1.67416C9.23415 1.98333 9.33331 2.42666 9.22248 2.82333L8.56915 5.24999H11.0833C11.5474 5.24999 11.9926 5.43437 12.3207 5.76256C12.6489 6.09075 12.8333 6.53587 12.8333 6.99999V7.58333Z" fill="#05A4E9"/>
</svg>
