<svg width="108" height="36" viewBox="0 0 108 36" fill="none" xmlns="http://www.w3.org/2000/svg">
<path d="M3.16606 28.4041C5.76952 27.2442 3.69117 19.0814 3.54801 6.34982C3.54046 5.67858 4.18553 5.19593 4.82784 5.391L26.4444 11.9559C27.3811 12.2404 28.2395 12.7463 28.8006 13.5486C30.116 15.4298 32.3227 19.596 31.9604 26.0198C31.4493 35.0814 0.471716 29.6045 3.16606 28.4041Z" fill="#05A4E9"/>
<circle cx="25.3391" cy="21.338" r="4.49296" fill="white"/>
<circle cx="10.9648" cy="21.338" r="3.67606" fill="white"/>
<path d="M15.8662 21.338H19.5423" stroke="white" stroke-linecap="round"/>
<path d="M51.06 22.86C51.7667 22.86 52.2733 22.7333 52.58 22.48C52.9 22.2133 53.06 21.9 53.06 21.54C53.06 21.2067 52.9333 20.94 52.68 20.74C52.44 20.5267 52.08 20.34 51.6 20.18L50.54 19.84C49.82 19.6 49.1867 19.3333 48.64 19.04C48.0933 18.7467 47.6667 18.3733 47.36 17.92C47.0533 17.4533 46.9 16.86 46.9 16.14C46.9 15.0333 47.32 14.1533 48.16 13.5C49 12.8467 50.1667 12.52 51.66 12.52C52.42 12.52 53.0933 12.5933 53.68 12.74C54.28 12.8867 54.7467 13.1067 55.08 13.4C55.4267 13.68 55.6 14.0267 55.6 14.44C55.6 14.7333 55.5267 14.9933 55.38 15.22C55.2333 15.4467 55.06 15.6333 54.86 15.78C54.5533 15.58 54.14 15.4 53.62 15.24C53.1133 15.08 52.56 15 51.96 15C51.32 15 50.8333 15.1067 50.5 15.32C50.18 15.5333 50.02 15.8067 50.02 16.14C50.02 16.4067 50.1267 16.6267 50.34 16.8C50.5667 16.96 50.8933 17.1067 51.32 17.24L52.42 17.6C53.6333 17.9733 54.5667 18.4667 55.22 19.08C55.8733 19.6933 56.2 20.52 56.2 21.56C56.2 22.68 55.7667 23.5933 54.9 24.3C54.0333 24.9933 52.78 25.34 51.14 25.34C50.3267 25.34 49.6 25.2467 48.96 25.06C48.32 24.8867 47.8133 24.64 47.44 24.32C47.0667 23.9867 46.88 23.6 46.88 23.16C46.88 22.8133 46.98 22.52 47.18 22.28C47.38 22.04 47.6067 21.8533 47.86 21.72C48.22 22.0133 48.6667 22.28 49.2 22.52C49.7467 22.7467 50.3667 22.86 51.06 22.86ZM57.9389 12.64C57.9389 12.1867 58.0922 11.8067 58.3989 11.5C58.7189 11.1933 59.1189 11.04 59.5989 11.04C60.0789 11.04 60.4722 11.1933 60.7789 11.5C61.0856 11.8067 61.2389 12.1867 61.2389 12.64C61.2389 13.08 61.0856 13.46 60.7789 13.78C60.4722 14.0867 60.0789 14.24 59.5989 14.24C59.1189 14.24 58.7189 14.0867 58.3989 13.78C58.0922 13.46 57.9389 13.08 57.9389 12.64ZM61.0789 19.72V24.98C60.9456 25.0067 60.7589 25.04 60.5189 25.08C60.2789 25.12 60.0189 25.14 59.7389 25.14C59.1789 25.14 58.7656 25.04 58.4989 24.84C58.2456 24.64 58.1189 24.28 58.1189 23.76V19.72H61.0789ZM58.1189 21.24V15.52C58.2522 15.48 58.4389 15.44 58.6789 15.4C58.9189 15.36 59.1789 15.34 59.4589 15.34C60.0189 15.34 60.4256 15.44 60.6789 15.64C60.9456 15.8267 61.0789 16.1867 61.0789 16.72V21.24H58.1189ZM67.4681 24.62C66.6681 24.62 65.9281 24.4733 65.2481 24.18C64.5815 23.8733 64.0415 23.3733 63.6281 22.68C63.2281 21.9733 63.0281 21.0533 63.0281 19.92C63.0281 18.8667 63.2348 17.9867 63.6481 17.28C64.0748 16.56 64.6681 16.02 65.4281 15.66C66.1881 15.2867 67.0681 15.1 68.0681 15.1C68.7881 15.1 69.4548 15.2 70.0681 15.4C70.6815 15.5867 71.1615 15.7933 71.5081 16.02C71.7615 16.18 71.9615 16.3733 72.1081 16.6C72.2548 16.8133 72.3281 17.0867 72.3281 17.42V23.68H69.4881V17.76C69.3281 17.6667 69.1415 17.5933 68.9281 17.54C68.7281 17.4733 68.4748 17.44 68.1681 17.44C67.5148 17.44 66.9815 17.64 66.5681 18.04C66.1681 18.44 65.9681 19.0667 65.9681 19.92C65.9681 20.8533 66.1615 21.5 66.5481 21.86C66.9348 22.22 67.4148 22.4 67.9881 22.4C68.4281 22.4 68.7948 22.32 69.0881 22.16C69.3815 22 69.6348 21.8267 69.8481 21.64L69.9481 24C69.6681 24.1733 69.3215 24.32 68.9081 24.44C68.5081 24.56 68.0281 24.62 67.4681 24.62ZM69.5281 23.04H72.3281V25C72.3281 25.92 72.1081 26.6733 71.6681 27.26C71.2415 27.8467 70.6548 28.28 69.9081 28.56C69.1748 28.84 68.3481 28.98 67.4281 28.98C66.7348 28.98 66.1215 28.92 65.5881 28.8C65.0548 28.68 64.6415 28.5267 64.3481 28.34C63.8948 28.0467 63.6681 27.6333 63.6681 27.1C63.6681 26.82 63.7215 26.5667 63.8281 26.34C63.9481 26.1267 64.0881 25.9667 64.2481 25.86C64.6081 26.0733 65.0348 26.2533 65.5281 26.4C66.0215 26.56 66.5415 26.64 67.0881 26.64C67.8348 26.64 68.4281 26.5 68.8681 26.22C69.3081 25.9533 69.5281 25.5133 69.5281 24.9V23.04ZM83.8005 20.66H80.8605V18.88C80.8605 18.3733 80.7138 18.0067 80.4205 17.78C80.1271 17.5533 79.7471 17.44 79.2805 17.44C78.9471 17.44 78.6405 17.48 78.3605 17.56C78.0805 17.64 77.8205 17.74 77.5805 17.86V20.66H74.6405V17.54C74.6405 17.2067 74.7071 16.9333 74.8405 16.72C74.9871 16.4933 75.2005 16.2933 75.4805 16.12C75.9071 15.8267 76.4471 15.5867 77.1005 15.4C77.7671 15.2 78.5005 15.1 79.3005 15.1C80.7405 15.1 81.8471 15.42 82.6205 16.06C83.4071 16.6867 83.8005 17.5933 83.8005 18.78V20.66ZM77.5805 19.74V24.98C77.4605 25.0067 77.2805 25.04 77.0405 25.08C76.8005 25.12 76.5405 25.14 76.2605 25.14C75.7005 25.14 75.2871 25.04 75.0205 24.84C74.7671 24.64 74.6405 24.28 74.6405 23.76V19.74H77.5805ZM83.8005 19.74V24.98C83.6805 25.0067 83.5005 25.04 83.2605 25.08C83.0205 25.12 82.7605 25.14 82.4805 25.14C81.9205 25.14 81.5071 25.04 81.2405 24.84C80.9871 24.64 80.8605 24.28 80.8605 23.76V19.74H83.8005ZM87.4044 19.6L92.3844 18.82C92.3444 18.4333 92.1777 18.0867 91.8844 17.78C91.591 17.46 91.1577 17.3 90.5844 17.3C89.971 17.3 89.4644 17.5067 89.0644 17.92C88.6644 18.32 88.4577 18.9 88.4444 19.66L88.5244 21.02C88.6577 21.7533 88.9777 22.28 89.4844 22.6C89.991 22.9067 90.591 23.06 91.2844 23.06C91.8444 23.06 92.371 22.9867 92.8644 22.84C93.3577 22.68 93.7577 22.5067 94.0644 22.32C94.251 22.44 94.411 22.6067 94.5444 22.82C94.6777 23.0333 94.7444 23.26 94.7444 23.5C94.7444 23.9 94.5844 24.2333 94.2644 24.5C93.9577 24.7667 93.5244 24.9667 92.9644 25.1C92.4177 25.2333 91.791 25.3 91.0844 25.3C90.0577 25.3 89.1377 25.1067 88.3244 24.72C87.511 24.3333 86.871 23.7533 86.4044 22.98C85.9377 22.2067 85.7044 21.24 85.7044 20.08C85.7044 19.2267 85.8377 18.4867 86.1044 17.86C86.371 17.2333 86.731 16.72 87.1844 16.32C87.651 15.9067 88.171 15.6 88.7444 15.4C89.331 15.2 89.9377 15.1 90.5644 15.1C91.4844 15.1 92.2844 15.2867 92.9644 15.66C93.6577 16.02 94.1977 16.5133 94.5844 17.14C94.971 17.7667 95.1644 18.4933 95.1644 19.32C95.1644 19.7333 95.051 20.0467 94.8244 20.26C94.5977 20.46 94.2844 20.5933 93.8844 20.66L87.5244 21.6L87.4044 19.6ZM99.9442 19.72V21.86C99.9442 22.2467 100.064 22.5267 100.304 22.7C100.544 22.86 100.878 22.94 101.304 22.94C101.518 22.94 101.738 22.92 101.964 22.88C102.191 22.84 102.391 22.7867 102.564 22.72C102.671 22.84 102.764 22.9867 102.844 23.16C102.924 23.32 102.964 23.5133 102.964 23.74C102.964 24.1933 102.778 24.5667 102.404 24.86C102.044 25.14 101.424 25.28 100.544 25.28C99.4376 25.28 98.5709 25.0333 97.9442 24.54C97.3309 24.0333 97.0242 23.2067 97.0242 22.06V19.72H99.9442ZM98.8642 15.62H102.724C102.791 15.7267 102.858 15.88 102.924 16.08C102.991 16.28 103.024 16.5 103.024 16.74C103.024 17.14 102.931 17.4333 102.744 17.62C102.571 17.8067 102.331 17.9 102.024 17.9H98.8642V15.62ZM97.0242 20.22V13.04C97.1442 13 97.3242 12.96 97.5642 12.92C97.8042 12.8667 98.0576 12.84 98.3242 12.84C98.8842 12.84 99.2909 12.94 99.5442 13.14C99.8109 13.34 99.9442 13.7 99.9442 14.22V20.22H97.0242Z" fill="#121212"/>
</svg>
