<svg width="46" height="46" viewBox="0 0 46 46" fill="none" xmlns="http://www.w3.org/2000/svg">
<path d="M10.5833 25.9487C10.031 25.9487 9.58331 25.501 9.58331 24.9487V24.8846C9.58331 24.3323 10.031 23.8846 10.5833 23.8846H21.9679V12.5C21.9679 11.9477 22.4156 11.5 22.9679 11.5H23.032C23.5843 11.5 24.032 11.9477 24.032 12.5V23.8846H35.4166C35.9689 23.8846 36.4166 24.3323 36.4166 24.8846V24.9487C36.4166 25.501 35.9689 25.9487 35.4166 25.9487H24.032V37.3333C24.032 37.8856 23.5843 38.3333 23.032 38.3333H22.9679C22.4156 38.3333 21.9679 37.8856 21.9679 37.3333V25.9487H10.5833Z" fill="#05A4E9"/>
</svg>
