<svg width="72" height="24" viewBox="0 0 72 24" fill="none" xmlns="http://www.w3.org/2000/svg">
<path d="M19.71 8.04L18.0771 9.66592C17.6863 10.055 17.0543 10.0543 16.6644 9.6644L14.3286 7.32862C13.9375 6.9375 13.9382 6.30317 14.3301 5.91289L15.96 4.29C16.35 3.9 17 3.9 17.37 4.29L19.71 6.63C20.1 7 20.1 7.65 19.71 8.04ZM3 17.6639C3 17.3989 3.10522 17.1447 3.29254 16.9572L12.3529 7.88781C12.7434 7.49695 13.3768 7.49679 13.7675 7.88746L16.1032 10.2232C16.4936 10.6136 16.4938 11.2465 16.1036 11.6371L7.04295 20.7068C6.85539 20.8945 6.60088 21 6.3355 21H4C3.44772 21 3 20.5523 3 20V17.6639ZM16.62 5.04L15.08 6.58L17.42 8.92L18.96 7.38L16.62 5.04ZM15.36 11L13 8.64L4 17.66V20H6.34L15.36 11Z" fill="white"/>
<path d="M44.3223 6.37695V7.19727C44.3223 8.01074 44.3223 9.02246 44.0762 10.3145H45.7031V11.5176H34.4102V10.3145H42.5449C42.7637 9.19336 42.7979 8.31152 42.8047 7.58008H35.8047V6.37695H44.3223ZM44.3086 12.502V15.8516H37.2402V16.9043H44.623V18.0938H35.7227V14.6895H42.791V13.6914H35.709V12.502H44.3086ZM50.4336 8.26367C50.4336 9.43262 50.9326 10.8271 52.1426 11.668C53.3389 10.8408 53.8379 9.4668 53.8379 8.26367V6.78711H55.3691V8.26367C55.3691 9.75391 56.0938 11.2852 57.7754 11.9824L56.9551 13.1172C55.7861 12.6182 55.0205 11.6953 54.6035 10.5742C54.166 11.7432 53.3799 12.748 52.1289 13.2812C50.8711 12.748 50.0781 11.7227 49.6543 10.5605C49.2236 11.6611 48.4512 12.6045 47.3027 13.1172L46.5098 11.9824C48.1504 11.2578 48.9023 9.67188 48.916 8.26367V6.78711H50.4336V8.26367ZM57.7754 15.3867V16.6309H46.5098V15.3867H57.7754ZM68.9316 5.85742V18.2168H67.4004V5.85742H68.9316ZM65.2402 7.16992C65.2402 10.8477 63.8184 13.9785 59.4844 16.0293L58.6914 14.8125C61.9248 13.2744 63.4287 11.1826 63.6953 8.37305H59.3203V7.16992H65.2402Z" fill="white"/>
</svg>
